<svg xmlns="http://www.w3.org/2000/svg" viewBox="0 0 100 100" role="img" aria-label="Figuris">
  <g fill="none" stroke-width="12" stroke-linejoin="round">
    <path d="M6 39V21A15 15 0 0 1 21 6H38" stroke="#17212B"/>
    <path d="M62 6H79A15 15 0 0 1 94 21V39" stroke="#17212B"/>
    <path d="M94 61V79A15 15 0 0 1 79 94H62" stroke="#17212B"/>
    <path d="M6 61V79A15 15 0 0 0 21 94H38" stroke="#176B67"/>
  </g>
  <g fill="#176B67">
    <rect x="29" y="69" width="11.5" height="13" rx="1.5"/>
    <rect x="48" y="58" width="11.5" height="24" rx="1.5"/>
    <rect x="67" y="38" width="11.5" height="44" rx="1.5"/>
  </g>
  <path d="M27.5 59.5C33 58 38 55.5 43.5 51.5M54 45.5L67.5 31.5" fill="none" stroke="#176B67" stroke-width="3.6" stroke-linecap="round"/>
  <circle cx="49" cy="48.5" r="5.4" fill="#176B67"/>
  <circle cx="73" cy="26.5" r="5.6" fill="#176B67"/>
  <circle cx="21.5" cy="61.5" r="5.6" fill="#D96C4D"/>
</svg>
